<svg
  xmlns="http://www.w3.org/2000/svg"
  viewBox="0 0 64 64"
  width="32"
  height="32"
  aria-hidden="true"
  role="img"
>
  <!-- Bun Top -->
  <path fill="#f4a261" d="M32 10c-12 0-22 7-22 15h44c0-8-10-15-22-15z" />
  <circle fill="#e76f51" cx="20" cy="14" r="2" />
  <circle fill="#e76f51" cx="40" cy="12" r="1.5" />
  <circle fill="#e76f51" cx="28" cy="16" r="1.2" />
  <circle fill="#e76f51" cx="36" cy="18" r="1.5" />

  <!-- Lettuce -->
  <path fill="#2a9d8f" d="M10 26h44s-2 3-6 3-8-2-12-2-9 2-12 2-6-3-6-3z" />

  <!-- Tomato -->
  <path fill="#e63946" d="M10 30h44s-2 3-6 3-8-2-12-2-9 2-12 2-6-3-6-3z" />

  <!-- Cheese -->
  <path fill="#f4c430" d="M16 34h32l-3 4-5-2-5 2-5-2-5 2-3-4z" />

  <!-- Patty -->
  <rect fill="#8d5524" x="10" y="38" width="44" height="6" rx="2" />

  <!-- Bun Bottom -->
  <path fill="#f4a261" d="M10 46h44v4a4 4 0 0 1-4 4H14a4 4 0 0 1-4-4v-4z" />
</svg>
